<?xml version="1.0" standalone="no"?>
<!DOCTYPE svg PUBLIC "-//W3C//DTD SVG 20010904//EN"
 "http://www.w3.org/TR/2001/REC-SVG-20010904/DTD/svg10.dtd">
<svg version="1.0" xmlns="http://www.w3.org/2000/svg"
 width="500.000000pt" height="500.000000pt" viewBox="0 0 500.000000 500.000000"
 preserveAspectRatio="xMidYMid meet">

<g transform="translate(0.000000,500.000000) scale(0.100000,-0.100000)"
fill="#000000" stroke="none">
<path d="M2325 3364 c-329 -73 -593 -326 -675 -648 -28 -111 -28 -321 0 -432
74 -291 291 -526 578 -625 96 -34 99 -34 277 -34 178 0 181 0 275 33 150 52
231 103 345 217 180 180 265 378 265 620 0 396 -260 743 -640 855 -101 29
-323 37 -425 14z m389 -64 c101 -25 204 -75 287 -138 401 -304 450 -878 104
-1237 -172 -178 -398 -266 -648 -252 -131 7 -199 25 -322 87 -166 82 -283 199
-365 365 -73 147 -85 201 -85 385 1 143 3 161 29 235 57 165 141 290 263 390
205 169 481 231 737 165z"/>
<path d="M2091 3017 c-14 -6 -41 -35 -60 -63 -20 -28 -49 -66 -64 -85 l-29
-34 5 50 c6 55 -1 115 -13 115 -14 0 -40 -68 -40 -104 0 -20 6 -52 14 -71 8
-18 12 -36 9 -38 -2 -3 -15 -31 -28 -63 l-23 -58 -7 40 c-11 66 -13 70 -32 52
-21 -21 -20 -85 1 -126 11 -22 18 -61 19 -121 l2 -88 -22 32 c-20 30 -42 45
-64 45 -32 0 33 -100 77 -119 22 -9 35 -26 52 -69 13 -31 26 -64 30 -72 5 -12
1 -12 -21 3 -29 19 -67 23 -67 6 0 -38 56 -79 110 -79 16 0 30 -3 30 -8 0 -4
20 -30 44 -58 l45 -51 -51 5 c-40 4 -50 2 -46 -9 8 -26 70 -50 111 -44 29 4
46 0 76 -19 37 -24 119 -51 127 -43 2 2 -14 9 -35 16 -31 9 -41 17 -46 40 -7
33 -60 99 -71 89 -4 -4 0 -26 9 -49 15 -38 15 -40 -1 -28 -53 40 -71 64 -78
103 -13 82 -59 140 -52 66 l4 -42 -19 23 c-10 13 -30 43 -44 66 -22 37 -23 47
-14 75 12 34 15 107 5 132 -11 28 -23 17 -37 -31 l-14 -47 -11 47 c-17 65 -16
74 17 115 33 42 57 112 38 112 -7 0 -23 -17 -37 -37 -20 -29 -26 -33 -29 -18
-2 10 5 44 14 76 15 49 21 58 46 63 34 6 118 80 106 93 -5 4 -30 -4 -57 -18
-55 -29 -55 -27 4 56 19 28 55 62 78 76 39 23 88 79 88 100 0 13 -21 11 -49
-4z"/>
<path d="M2900 3024 c0 -22 43 -77 72 -92 42 -22 80 -61 116 -121 l30 -48 -48
26 c-27 14 -52 22 -56 18 -12 -12 47 -68 93 -89 37 -16 44 -25 58 -70 25 -85
21 -98 -19 -52 -19 21 -37 36 -40 33 -11 -10 25 -96 50 -119 27 -26 29 -53 10
-115 l-12 -40 -12 48 c-8 30 -17 47 -25 44 -16 -5 -21 -93 -7 -140 10 -35 9
-42 -25 -97 -20 -33 -39 -62 -43 -64 -4 -2 -6 14 -4 37 l3 42 -20 -23 c-20
-23 -41 -81 -41 -114 0 -14 -80 -91 -88 -84 -1 2 4 16 13 32 31 59 11 74 -29
22 -13 -18 -27 -45 -31 -59 -5 -19 -17 -30 -47 -40 -22 -7 -36 -15 -29 -17 16
-5 80 17 121 42 23 14 52 21 85 21 32 0 61 7 78 18 42 27 34 40 -22 35 l-50
-5 45 51 c24 28 44 54 44 58 0 5 14 8 30 8 54 0 110 41 110 79 0 17 -32 13
-67 -8 l-32 -20 30 62 c16 34 29 67 29 73 0 6 14 17 31 24 32 14 72 60 84 98
12 41 -41 19 -74 -32 -15 -23 -16 -19 -15 63 1 59 7 98 18 119 20 39 21 115 2
131 -17 15 -22 8 -31 -48 l-7 -43 -23 57 c-13 31 -26 59 -28 62 -3 2 1 20 9
38 8 19 14 48 14 64 0 34 -28 111 -40 111 -13 0 -21 -61 -14 -114 l5 -51 -26
30 c-14 17 -41 53 -60 81 -18 28 -40 55 -47 61 -18 15 -68 27 -68 17z"/>
<path d="M2267 2803 c-4 -3 -7 -44 -7 -89 0 -81 -1 -84 -27 -98 -38 -19 -69
-54 -88 -98 -20 -50 -19 -143 4 -193 17 -39 81 -105 101 -105 6 0 10 -41 10
-95 0 -88 1 -95 20 -95 18 0 20 7 20 89 l0 88 52 7 c42 6 59 14 90 45 44 44
47 61 16 80 -19 12 -23 12 -27 0 -11 -34 -60 -69 -95 -69 l-36 0 0 156 0 157
42 -6 c30 -4 50 -14 66 -33 21 -24 26 -25 48 -14 30 17 30 21 -4 58 -27 29
-84 52 -129 52 -22 0 -23 4 -23 85 0 64 -3 85 -13 85 -8 0 -17 -3 -20 -7z m-7
-379 c0 -144 -6 -159 -42 -98 -16 28 -21 63 -19 134 1 37 33 100 51 100 6 0
10 -51 10 -136z"/>
<path d="M2750 2725 c0 -81 -1 -85 -22 -85 -33 -1 -99 -33 -125 -61 -54 -59
-70 -177 -34 -254 26 -58 81 -102 136 -110 l45 -7 0 -89 c0 -82 2 -89 20 -89
19 0 20 7 20 94 0 91 1 94 24 100 26 6 86 69 86 89 0 17 -43 43 -48 29 -6 -19
-43 -62 -53 -62 -5 0 -9 63 -9 145 0 82 4 145 9 145 5 0 18 -11 29 -25 23 -29
30 -30 56 -10 18 13 18 15 -3 44 -12 16 -37 36 -56 42 l-35 13 0 88 c0 81 -2
88 -20 88 -18 0 -20 -7 -20 -85z m0 -300 c0 -150 -1 -155 -20 -155 -34 0 -79
28 -95 61 -21 40 -21 148 0 188 17 33 57 60 93 61 22 0 22 -1 22 -155z"/>
</g>
</svg>
